<svg width="142" height="39" viewBox="0 0 142 39" fill="none" xmlns="http://www.w3.org/2000/svg">
<path d="M0 7.2581H16.5743V10.7942H4.02519V15.7234H15.1536V19.3666H4.02519V27.4033H0V7.2581ZM32.7934 19.581L38.476 27.4033H33.7405L28.7682 20.2239H22.9672V27.4033H18.9421V7.2581H29.7153C32.0831 7.2581 33.9773 7.90103 35.398 9.07973C36.8186 10.2584 37.5289 11.8658 37.5289 13.9017C37.5289 15.2947 37.1738 16.3663 36.5818 17.2235C35.9899 18.0808 35.2796 18.7237 34.3325 19.1523C33.7405 19.2595 33.267 19.4738 32.7934 19.581ZM22.8488 16.7949H29.1234C29.8337 16.7949 30.4257 16.6878 31.136 16.4734C31.7279 16.2591 32.3199 16.0448 32.675 15.6162C33.0302 15.1876 33.267 14.6518 33.267 13.9017C33.267 12.9373 32.9118 12.1872 32.2015 11.6515C31.4912 11.1157 30.4257 10.7942 29.2418 10.7942H22.8488V16.7949ZM46.408 11.5443C47.4735 11.0085 48.7758 10.6871 50.1964 10.6871C51.6171 10.6871 52.9194 10.9014 53.8665 11.33C54.8136 11.8658 55.9974 13.0445 56.2342 13.9017H60.3778C59.9042 11.1157 58.01 9.61551 56.2342 8.54396C54.4584 7.47241 52.3274 7.04379 49.9597 7.04379C47.7103 7.04379 45.8161 7.47241 44.1587 8.4368C42.5012 9.4012 41.199 10.5799 40.3702 12.1872C39.4231 13.6874 39.068 15.5091 39.068 17.3307C39.068 19.2595 39.5415 20.974 40.3702 22.4741C41.199 24.0815 42.5012 25.2602 44.1587 26.2246C45.8161 27.189 47.7103 27.6176 49.9597 27.6176C51.2619 27.6176 52.5642 27.4033 53.6297 27.0818C54.6952 26.7604 55.6423 26.2246 56.3526 25.5816C56.471 25.4745 56.471 25.4745 56.5894 25.3673V27.4033H60.4962V15.9377H49.1309V19.3666H56.5894C56.471 20.1167 56.2342 20.8668 55.7607 21.5097C55.1687 22.367 54.34 22.9028 53.3929 23.3314C52.4458 23.76 51.3803 23.9743 50.1964 23.9743C48.6574 23.9743 47.4735 23.6528 46.408 23.1171C45.3425 22.5813 44.5138 21.7241 44.0403 20.7597C43.4483 19.6881 43.2116 18.6166 43.2116 17.3307C43.2116 16.0448 43.4483 14.8661 44.0403 13.9017C44.5138 12.9373 45.3425 12.0801 46.408 11.5443ZM106.431 21.2954L95.0654 7.2581H91.0402V27.4033H95.0654V13.3659L105.247 26.0103L109.746 20.5453L110.337 19.7953V7.2581H106.312V21.2954H106.431ZM120.874 7.2581H112.824V10.7942H117.914L120.874 7.2581ZM121.466 7.2581L119.69 10.7942H119.927V22.6885L123.952 19.6881V10.7942H131.174V7.2581H121.466ZM129.753 23.0099V27.4033H134.489V23.0099H129.753ZM72.9269 27.4033L66.7707 11.33V27.4033H62.7455V7.2581H69.9672L75.7682 23.1171L81.5692 7.2581H88.7909V27.4033H84.6473V11.33L78.4911 27.4033H72.9269Z" fill="black"/>
<path d="M19.0601 7.25726L25.3346 0.29217L23.4404 5.75709L26.7553 4.14976L27.3472 6.18571L29.9517 5.32847L29.2414 7.36441H19.0601V7.25726Z" stroke="black" stroke-width="0.5" stroke-miterlimit="10" stroke-linecap="round" stroke-linejoin="round"/>
<path d="M95.4199 37.7973L122.412 5.43646L110.455 29.6535L127.74 16.9021L123.715 28.4748L125.727 28.1534L123.951 32.9754L130.936 26.2246L129.279 30.9394L140.999 23.3314L131.883 37.7973H95.4199Z" stroke="black" stroke-width="0.5" stroke-miterlimit="10" stroke-linecap="round" stroke-linejoin="round"/>
</svg>
