<svg width="67" height="32" viewBox="0 0 67 32" fill="none" xmlns="http://www.w3.org/2000/svg">
<path d="M65.8 12.9576L62.1 22.9347H52L51.6 18.5749L48 22.9347H36.9L36 16.7304L33.1 22.9347H1L7.7 12.9576L12.9 17.988L24.8 1.72289L24.1 17.3173L27.8 14.8021V19.1618L36 10.4424L40.5 17.3173L44.2 12.9576L47.2 17.988L60.6 5.49574L58.3 16.0597L65.8 12.9576Z" stroke="black"/>
<path d="M63.5 26.7078L62.1 31.0676H29.3L33.1 22.935L36 16.7308L36.9 22.935L37.5 27.2947L43.5 23.6057L44.9 26.7078L48 22.935L51.6 18.5753L52 22.935L52.4 26.7078L58.3 24.1926L63.5 26.7078Z" stroke="black"/>
</svg>
