<svg width="120" height="37" viewBox="0 0 120 37" fill="none" xmlns="http://www.w3.org/2000/svg">
<path d="M0 7.50078H14V10.8008H3.4V15.4008H12.8V18.8008H3.4V26.3008H0V7.50078ZM27.7 19.0008L32.5 26.3008H28.5L24.3 19.6008H19.4V26.3008H16V7.50078H25.1C27.1 7.50078 28.7 8.10078 29.9 9.20078C31.1 10.3008 31.7 11.8008 31.7 13.7008C31.7 15.0008 31.4 16.0008 30.9 16.8008C30.4 17.6008 29.8 18.2008 29 18.6008C28.5 18.7008 28.1 18.9008 27.7 19.0008ZM19.3 16.4008H24.6C25.2 16.4008 25.7 16.3008 26.3 16.1008C26.8 15.9008 27.3 15.7008 27.6 15.3008C27.9 14.9008 28.1 14.4008 28.1 13.7008C28.1 12.8008 27.8 12.1008 27.2 11.6008C26.6 11.1008 25.7 10.8008 24.7 10.8008H19.3V16.4008ZM39.2 11.5008C40.1 11.0008 41.2 10.7008 42.4 10.7008C43.6 10.7008 44.7 10.9008 45.5 11.3008C46.3 11.8008 47.3 12.9008 47.5 13.7008H51C50.6 11.1008 49 9.70078 47.5 8.70078C46 7.70078 44.2 7.30078 42.2 7.30078C40.3 7.30078 38.7 7.70078 37.3 8.60078C35.9 9.50078 34.8 10.6008 34.1 12.1008C33.3 13.5008 33 15.2008 33 16.9008C33 18.7008 33.4 20.3008 34.1 21.7008C34.8 23.2008 35.9 24.3008 37.3 25.2008C38.7 26.1008 40.3 26.5008 42.2 26.5008C43.3 26.5008 44.4 26.3008 45.3 26.0008C46.2 25.7008 47 25.2008 47.6 24.6008C47.7 24.5008 47.7 24.5008 47.8 24.4008V26.3008H51.1V15.6008H41.5V18.8008H47.8C47.7 19.5008 47.5 20.2008 47.1 20.8008C46.6 21.6008 45.9 22.1008 45.1 22.5008C44.3 22.9008 43.4 23.1008 42.4 23.1008C41.1 23.1008 40.1 22.8008 39.2 22.3008C38.3 21.8008 37.6 21.0008 37.2 20.1008C36.7 19.1008 36.5 18.1008 36.5 16.9008C36.5 15.7008 36.7 14.6008 37.2 13.7008C37.6 12.8008 38.3 12.0008 39.2 11.5008ZM89.9 20.6008L80.3 7.50078H76.9V26.3008H80.3V13.2008L88.9 25.0008L92.7 19.9008L93.2 19.2008V7.50078H89.8V20.6008H89.9ZM102.1 7.50078H95.3V10.8008H99.6L102.1 7.50078ZM102.6 7.50078L101.1 10.8008H101.3V21.9008L104.7 19.1008V10.8008H110.8V7.50078H102.6ZM109.6 22.2008V26.3008H113.6V22.2008H109.6ZM61.6 26.3008L56.4 11.3008V26.3008H53V7.50078H59.1L64 22.3008L68.9 7.50078H75V26.3008H71.5V11.3008L66.3 26.3008H61.6Z" fill="black"/>
<path d="M16.0996 7.5L21.3996 1L19.7996 6.1L22.5996 4.6L23.0996 6.5L25.2996 5.7L24.6996 7.6H16.0996V7.5Z" fill="white" stroke="black" stroke-width="0.5" stroke-miterlimit="10" stroke-linecap="round" stroke-linejoin="round"/>
<path d="M80.5996 36.0008L103.4 5.80078L93.2996 28.4008L107.9 16.5008L104.5 27.3008L106.2 27.0008L104.7 31.5008L110.6 25.2008L109.2 29.6008L119.1 22.5008L111.4 36.0008H80.5996Z" fill="white" stroke="black" stroke-width="0.5" stroke-miterlimit="10" stroke-linecap="round" stroke-linejoin="round"/>
</svg>
