<svg width="20" height="27" viewBox="0 0 20 27" fill="none" xmlns="http://www.w3.org/2000/svg">
<path fill-rule="evenodd" clip-rule="evenodd" d="M15 20.5C15 23.5376 12.5376 26 9.5 26C6.46243 26 4 23.5376 4 20.5C4 17.4624 6.46243 15 9.5 15C12.5376 15 15 17.4624 15 20.5ZM16 20.5C16 24.0899 13.0899 27 9.5 27C5.91015 27 3 24.0899 3 20.5C3 16.9101 5.91015 14 9.5 14C13.0899 14 16 16.9101 16 20.5ZM9.5 23.5C7.76806 23.5 6.5 22.3112 6.5 21H5.5C5.5 23.0025 7.36595 24.5 9.5 24.5C11.6341 24.5 13.5 23.0025 13.5 21H12.5C12.5 22.3112 11.2319 23.5 9.5 23.5ZM7.5 19V17H8.5V19H7.5ZM10.5 17V19H11.5V17H10.5Z" fill="currentColor"/>
<path d="M1 13.7244L11.4915 1L8.31921 10.8889L13.8131 7.87616L14.8055 11.6332L19.0942 10.056L17.8537 13.7244H1Z" stroke="currentColor" stroke-miterlimit="10" stroke-linecap="round" stroke-linejoin="round"/>
</svg>
