<svg width="422" height="136" viewBox="0 0 422 136" fill="none" xmlns="http://www.w3.org/2000/svg">
<path d="M3 133C5.59399 104.25 4.41295 75.0641 7.99314 46.4225C8.26539 44.2445 8.92906 41.9205 9.73182 39.869C10.3857 38.198 11.5172 43.0007 12.1392 44.6838C18.169 60.9997 24.5928 77.4407 33.6722 92.3416C38.0246 99.4848 45.3625 113.257 54.1797 115.97C57.9404 117.127 60.1942 111.496 61.2236 109.015C68.4297 91.6465 68.6182 70.1332 67.465 51.6831C66.4481 35.4128 59.9753 19.2162 59.9753 3" stroke="#E30764" stroke-width="6" stroke-linecap="round"/>
<path d="M83.2467 21.4539C82.1665 41.9093 79.8357 63.4009 83.1575 83.779C84.0041 88.9722 86.175 102.6 92.2522 105.178C98.0853 107.653 105.558 95.6781 107.856 92.4278C117.835 78.3136 123.573 62.1406 126.402 45.1713C127.213 40.3024 127.382 35.5078 127.382 30.5931C127.382 25.9542 127.586 39.87 127.828 44.5026C128.953 66.027 129.436 91.1385 141.827 109.725" stroke="#E30764" stroke-width="6" stroke-linecap="round"/>
<path d="M157.877 30.2827C160.4 50.7227 165.407 70.2955 172.143 89.7546C174.423 96.3399 176.917 106.298 181.951 111.332" stroke="#E30764" stroke-width="6" stroke-linecap="round"/>
<path d="M157.074 27.874C175.679 28.2657 195.826 30.2489 213.024 37.7266C231.871 45.9207 239.973 63.9208 238.034 84.0469C236.051 104.639 218.421 117.821 199.65 123.1C192.934 124.989 185.636 125.984 178.652 125.552C171.81 125.129 167.888 121.71 162.692 117.751" stroke="#E30764" stroke-width="6" stroke-linecap="round"/>
<path d="M244.543 19.8516C248.666 42.8702 243.045 69.7719 259.968 88.6856C269.406 99.2333 284.317 100.633 297.684 100.633C314.156 100.633 328.621 97.5456 343.247 90.4688" stroke="#E30764" stroke-width="6" stroke-linecap="round"/>
<path d="M249.358 46.33C264.311 47.7928 279.791 49.5602 294.297 44.7251" stroke="#E30764" stroke-width="6" stroke-linecap="round"/>
<path d="M244.543 19.8486C266.178 15.9026 287.698 11.1345 309.543 8.61401" stroke="#E30764" stroke-width="6" stroke-linecap="round"/>
<path d="M353.679 11.0227C346.683 12.5641 339.788 15.4531 333.795 19.404C330.35 21.6752 322.989 26.7217 323.408 31.7532C323.865 37.2336 343.727 35.0904 346.1 35.0968C364.167 35.1453 383.954 33.0427 401.693 37.2813C408.729 38.9624 415.162 43.5686 417.564 50.6558C420.831 60.2927 405.507 66.9559 398.884 69.6921C380.883 77.1304 350.985 78.1144 342.444 56.7634" stroke="#E30764" stroke-width="6" stroke-linecap="round"/>
</svg>
