<svg width="67" height="38" viewBox="0 0 67 38" fill="none" xmlns="http://www.w3.org/2000/svg">
<path d="M65.8 15.4L62.1 27.3H52L51.6 22.1L48 27.3H36.9L36 19.9L33.1 27.3H1L7.7 15.4L12.9 21.4L24.8 2L24.1 20.6L27.8 17.6V22.8L36 12.4L40.5 20.6L44.2 15.4L47.2 21.4L60.6 6.5L58.3 19.1L65.8 15.4Z" stroke="white"/>
<path d="M63.4998 31.8004L62.0998 37.0004H29.2998L33.0998 27.3004L35.9998 19.9004L36.8998 27.3004L37.4998 32.5004L43.4998 28.1004L44.8998 31.8004L47.9998 27.3004L51.5998 22.1004L51.9998 27.3004L52.3998 31.8004L58.2998 28.8004L63.4998 31.8004Z" stroke="white"/>
</svg>
