<svg width="142" height="43" viewBox="0 0 142 43" fill="none" xmlns="http://www.w3.org/2000/svg">
<path d="M0 8.69613H16.5743V12.6029H4.02519V18.0488H15.1536V22.074H4.02519V30.953H0V8.69613ZM32.7934 22.3107L38.476 30.953H33.7405L28.7682 23.0211H22.9672V30.953H18.9421V8.69613H29.7153C32.0831 8.69613 33.9773 9.40646 35.398 10.7087C36.8186 12.011 37.5289 13.7868 37.5289 16.0362C37.5289 17.5752 37.1738 18.7591 36.5818 19.7062C35.9899 20.6533 35.2796 21.3636 34.3325 21.8372C33.7405 21.9556 33.267 22.1923 32.7934 22.3107ZM22.8488 19.2326H29.1234C29.8337 19.2326 30.4257 19.1143 31.136 18.8775C31.7279 18.6407 32.3199 18.4039 32.675 17.9304C33.0302 17.4568 33.267 16.8649 33.267 16.0362C33.267 14.9707 32.9118 14.142 32.2015 13.55C31.4912 12.9581 30.4257 12.6029 29.2418 12.6029H22.8488V19.2326ZM46.408 13.4316C47.4735 12.8397 48.7758 12.4845 50.1964 12.4845C51.6171 12.4845 52.9194 12.7213 53.8665 13.1949C54.8136 13.7868 55.9974 15.0891 56.2342 16.0362H60.3778C59.9042 12.9581 58.01 11.3007 56.2342 10.1168C54.4584 8.93291 52.3274 8.45936 49.9597 8.45936C47.7103 8.45936 45.8161 8.93291 44.1587 9.9984C42.5012 11.0639 41.199 12.3662 40.3702 14.142C39.4231 15.7994 39.068 17.812 39.068 19.8246C39.068 21.9556 39.5415 23.8498 40.3702 25.5072C41.199 27.283 42.5012 28.5853 44.1587 29.6508C45.8161 30.7163 47.7103 31.1898 49.9597 31.1898C51.2619 31.1898 52.5642 30.953 53.6297 30.5979C54.6952 30.2427 55.6423 29.6508 56.3526 28.9404C56.471 28.8221 56.471 28.8221 56.5894 28.7037V30.953H60.4962V18.2855H49.1309V22.074H56.5894C56.471 22.9027 56.2342 23.7314 55.7607 24.4417C55.1687 25.3888 54.34 25.9808 53.3929 26.4543C52.4458 26.9279 51.3803 27.1646 50.1964 27.1646C48.6574 27.1646 47.4735 26.8095 46.408 26.2175C45.3425 25.6256 44.5138 24.6785 44.0403 23.613C43.4483 22.4291 43.2116 21.2452 43.2116 19.8246C43.2116 18.4039 43.4483 17.1017 44.0403 16.0362C44.5138 14.9707 45.3425 14.0236 46.408 13.4316ZM106.431 24.2049L95.0654 8.69613H91.0402V30.953H95.0654V15.4442L105.247 29.414L109.746 23.3762L110.337 22.5475V8.69613H106.312V24.2049H106.431ZM120.874 8.69613H112.824V12.6029H117.914L120.874 8.69613ZM121.466 8.69613L119.69 12.6029H119.927V25.744L123.952 22.4291V12.6029H131.174V8.69613H121.466ZM129.753 26.0991V30.953H134.489V26.0991H129.753ZM72.9269 30.953L66.7707 13.1949V30.953H62.7455V8.69613H69.9672L75.7682 26.2175L81.5692 8.69613H88.7909V30.953H84.6473V13.1949L78.4911 30.953H72.9269Z" fill="white"/>
<path d="M19.0601 8.69521L25.3346 1L23.4404 7.03778L26.7553 5.26196L27.3472 7.51133L29.9517 6.56423L29.2414 8.8136H19.0601V8.69521Z" stroke="white" stroke-width="0.5" stroke-miterlimit="10" stroke-linecap="round" stroke-linejoin="round"/>
<path d="M95.4199 42.4367L122.412 6.68354L110.455 33.4392L127.74 19.351L123.715 32.1369L125.727 31.7818L123.951 37.1092L130.936 29.6508L129.279 34.8598L140.999 26.4543L131.883 42.4367H95.4199Z" stroke="white" stroke-width="0.5" stroke-miterlimit="10" stroke-linecap="round" stroke-linejoin="round"/>
</svg>
