<svg width="67" height="35" viewBox="0 0 67 35" fill="none" xmlns="http://www.w3.org/2000/svg">
<path d="M65.8 14.4124L62.1 25.4353H52L51.6 20.6186L48 25.4353H36.9L36 18.5807L33.1 25.4353H1L7.7 14.4124L12.9 19.9702L24.8 2L24.1 19.2291L27.8 16.4502V21.267L36 11.6335L40.5 19.2291L44.2 14.4124L47.2 19.9702L60.6 6.16833L58.3 17.8397L65.8 14.4124Z" stroke="white"/>
<path d="M63.4998 29.604L62.0998 34.4207H29.2998L33.0998 25.4357L35.9998 18.5811L36.8998 25.4357L37.4998 30.2524L43.4998 26.1767L44.8998 29.604L47.9998 25.4357L51.5998 20.6189L51.9998 25.4357L52.3998 29.604L58.2998 26.8251L63.4998 29.604Z" stroke="white"/>
</svg>
